<?xml version="1.0" encoding="UTF-8" standalone="no"?>
<!-- Created with Inkscape (http://www.inkscape.org/) -->

<svg
   xmlns:dc="http://purl.org/dc/elements/1.1/"
   xmlns:cc="http://creativecommons.org/ns#"
   xmlns:rdf="http://www.w3.org/1999/02/22-rdf-syntax-ns#"
   xmlns:svg="http://www.w3.org/2000/svg"
   xmlns="http://www.w3.org/2000/svg"
   xmlns:sodipodi="http://sodipodi.sourceforge.net/DTD/sodipodi-0.dtd"
   xmlns:inkscape="http://www.inkscape.org/namespaces/inkscape"
   width="638.40588mm"
   height="1196.0347mm"
   viewBox="0 0 638.40585 1196.0346"
   version="1.1"
   id="svg8"
   inkscape:version="0.92.2 5c3e80d, 2017-08-06"
   sodipodi:docname="potiro-w8.svg">
  <defs
     id="defs2" />
  <sodipodi:namedview
     id="base"
     pagecolor="#ffffff"
     bordercolor="#666666"
     borderopacity="1.0"
     inkscape:pageopacity="0.0"
     inkscape:pageshadow="2"
     inkscape:zoom="0.14"
     inkscape:cx="557.53007"
     inkscape:cy="2468.2626"
     inkscape:document-units="mm"
     inkscape:current-layer="layer3"
     showgrid="false"
     inkscape:window-width="1920"
     inkscape:window-height="1035"
     inkscape:window-x="0"
     inkscape:window-y="1"
     inkscape:window-maximized="1" />
  <metadata
     id="metadata5">
    <rdf:RDF>
      <cc:Work
         rdf:about="">
        <dc:format>image/svg+xml</dc:format>
        <dc:type
           rdf:resource="http://purl.org/dc/dcmitype/StillImage" />
        <dc:title />
      </cc:Work>
    </rdf:RDF>
  </metadata>
  <g
     inkscape:groupmode="layer"
     id="layer3"
     inkscape:label="Layer 3"
     style="display:inline"
     transform="translate(-257.39781,-138.69636)">
    <path
       style="fill:none;stroke:#000000;stroke-width:8;stroke-linecap:butt;stroke-linejoin:miter;stroke-miterlimit:4;stroke-dasharray:none;stroke-opacity:1"
       d="m 378.35416,531.41562 c 0,0 -3.96875,-113.77083 3.30729,-137.58334 5.38444,-17.62182 14.55208,-38.36457 37.04167,-58.20833 12.39966,-10.94087 38.36458,-27.78125 75.40625,-37.70312 37.04166,-9.92188 56.22396,-9.92188 90.61979,-9.92188 34.39583,0 73.42187,12.56771 88.63541,18.52084 15.21355,5.95312 42.9948,19.84375 58.20834,31.08854 15.21354,11.24479 33.07291,23.15104 41.01041,39.02604 7.9375,15.875 18.52084,37.04167 20.50521,64.82292 1.98438,27.78125 1.32292,47.625 -3.30729,67.46875 -4.63021,19.84375 -11.24479,54.23958 -17.85937,50.93229 -6.61459,-3.3073 -11.90625,-9.92187 -42.99479,-17.85937 -36.18313,-11.19318 -110.31217,-19.50276 -162.0573,-23.15105 -73.25014,-4.91298 -188.51562,12.56771 -188.51562,12.56771 z"
       id="path4601"
       inkscape:connector-curvature="0"
       sodipodi:nodetypes="cssssssssssccc" />
    <path
       style="fill:none;stroke:#000000;stroke-width:8;stroke-linecap:round;stroke-linejoin:round;stroke-miterlimit:4;stroke-dasharray:none;stroke-opacity:1"
       d="m 762.66145,362.08228 c -9.26042,-50.93229 0,-53.57812 -2.64583,-87.97395 -2.64584,-34.39583 -17.19792,-67.46875 -17.19792,-67.46875 0,0 0,-7.27604 -17.19792,-22.48958 -17.19791,-15.21354 -25.79687,-20.50521 -41.01041,-27.78125 -15.21355,-7.27604 -47.625,-17.85938 -56.88542,-11.90625 -9.26042,5.95312 -1.11863,17.22765 -17.85937,21.16666 0,0 -12.56771,3.96875 -29.76563,-5.29166 -17.19792,-9.26042 -31.75,-14.55209 -58.20833,-3.30729 -26.45833,11.24479 -28.44271,7.9375 -57.54688,41.01041 -29.10416,33.07292 -36.3802,42.33334 -45.64062,70.77604 -9.26042,28.44271 -17.85938,60.19271 -13.22917,76.72917"
       id="path4603"
       inkscape:connector-curvature="0"
       sodipodi:nodetypes="cscssssssssc" />
    <path
       style="fill:none;stroke:#000000;stroke-width:8;stroke-linecap:round;stroke-linejoin:miter;stroke-miterlimit:4;stroke-dasharray:none;stroke-opacity:1"
       d="m 490.07592,297.63142 c 8.8164,-56.34945 12.88552,-64.21216 21.70193,-77.31667 8.81641,-13.10453 13.56371,-17.69111 20.34556,-20.96724 6.78185,-3.27613 10.17278,-4.58658 13.56371,-1.96568"
       id="path4605"
       inkscape:connector-curvature="0" />
    <path
       style="fill:none;stroke:#000000;stroke-width:8;stroke-linecap:round;stroke-linejoin:miter;stroke-miterlimit:4;stroke-dasharray:none;stroke-opacity:1"
       d="m 609.86458,165.62916 c 42.41398,-4.99464 66.08877,16.7974 64.16146,52.91667 -1.32292,20.50521 -15.87501,54.23958 -15.87501,54.23958"
       id="path4607"
       inkscape:connector-curvature="0"
       sodipodi:nodetypes="ccc" />
    <path
       style="fill:none;stroke:#000000;stroke-width:8;stroke-linecap:round;stroke-linejoin:miter;stroke-miterlimit:4;stroke-dasharray:none;stroke-opacity:1"
       d="m 392.24479,529.43124 c 0,63.5 40.34895,167.34896 168.67187,174.625 128.32291,7.27604 171.97916,-43.65625 203.06771,-145.52083"
       id="path4609"
       inkscape:connector-curvature="0"
       sodipodi:nodetypes="csc" />
    <ellipse
       style="display:inline;stroke-width:5.37122536;stroke-linecap:round;stroke-linejoin:round;stroke-miterlimit:4;stroke-dasharray:none"
       id="path4613"
       cx="658.8457"
       cy="579.32434"
       rx="21.133427"
       ry="13.606904" />
    <path
       style="display:inline;fill:none;stroke:#000000;stroke-width:8;stroke-linecap:round;stroke-linejoin:miter;stroke-miterlimit:4;stroke-dasharray:none;stroke-opacity:1"
       d="m 513.82082,626.00415 c 26.87802,22.08009 66.61931,27.04177 88.63542,8.59896"
       id="path4615"
       inkscape:connector-curvature="0"
       sodipodi:nodetypes="cc" />
    <path
       style="fill:none;stroke:#000000;stroke-width:8;stroke-linecap:round;stroke-linejoin:miter;stroke-miterlimit:4;stroke-dasharray:none;stroke-opacity:1"
       d="m 430.30393,645.04656 c -57.99748,7.48356 -158.08991,191.7659 -166.50891,298.40642 -8.41899,106.64052 -1.87089,386.33812 144.05828,387.27352 145.92916,0.9355 83.25445,-143.1228 87.93168,-177.7342 4.6772,-34.6114 9.94189,-51.7186 31.80507,-61.7393 22.45062,-10.2899 57.06202,-17.7734 86.06078,-0.9354 76.45436,43.629 44.1884,106.1386 43.03039,168.3798 0,30.8696 9.35445,57.062 47.70763,67.3519 80.62669,17.539 155.61747,-22.635 180.54055,-100.0924 10.28986,-32.7405 10.28986,-89.8026 -9.35445,-242.27984 C 855.93064,831.1998 845.64079,783.49217 817.57747,747.00989 789.51417,710.52761 771.74076,693.68963 750.22556,681.52885 728.71035,669.3681 710.93694,664.69087 710.93694,664.69087"
       id="path4620"
       inkscape:connector-curvature="0"
       sodipodi:nodetypes="cssssccccsscc" />
    <path
       style="fill:none;stroke:#000000;stroke-width:8;stroke-linecap:round;stroke-linejoin:miter;stroke-miterlimit:4;stroke-dasharray:none;stroke-opacity:1"
       d="m 427.49761,745.13902 c 14.96708,75.7709 0.93543,102.89876 -15.90255,150.60636 -16.83798,47.7076 -18.70887,57.06205 -19.6443,90.73801 -0.93544,33.67591 9.35442,40.22411 14.96708,62.67471 5.61268,22.4506 14.03167,35.5468 15.90254,39.2886"
       id="path4622"
       inkscape:connector-curvature="0" />
    <path
       style="fill:none;stroke:#000000;stroke-width:8;stroke-linecap:round;stroke-linejoin:miter;stroke-miterlimit:4;stroke-dasharray:none;stroke-opacity:1"
       d="m 727.77491,760.1061 c -16.83798,60.80382 -4.6772,92.60888 9.35445,131.89752 14.03165,39.28861 20.57974,57.99748 21.51518,86.06078 0.93546,28.0633 0.93546,59.8684 -13.09619,70.1582"
       id="path4626"
       inkscape:connector-curvature="0" />
    <path
       style="fill:none;stroke:#000000;stroke-width:8;stroke-linecap:round;stroke-linejoin:miter;stroke-miterlimit:4;stroke-dasharray:none;stroke-opacity:1"
       d="m 478.947,562.72755 c 16.83798,11.22532 30.86962,8.41899 40.22405,4.67722"
       id="path4628"
       inkscape:connector-curvature="0" />
  </g>
</svg>
